<svg xmlns="http://www.w3.org/2000/svg" viewBox="0 0 1200 1200"><defs><style>.a{fill:#d3d3d3;}</style></defs><path class="a" d="M1177.68,566.22v67.7c-.66,3.24-1.68,6.46-1.91,9.73-5.62,80.59-26.94,156.93-65.93,227.53-89.85,162.7-226.32,262.35-409.14,297.47-22,4.24-44.51,6.14-66.78,9.12H566.23c-2.9-.64-5.78-1.65-8.71-1.85-80.62-5.5-157.24-26.26-227.64-65.69C140.05,1003.91,36.79,841.44,23.39,624.15,17,519.94,39.41,420.23,90.47,329,196.51,139.58,359,36.68,575.82,23.29,680,16.86,779.38,39.81,871,90.2q244.38,134.45,297.6,409.31C1172.8,521.52,1174.7,544,1177.68,566.22ZM819.81,316.4V177.83c-49.56,0-98.6-3.2-147.06.69C583,185.73,519.54,250.77,512.61,340.7c-3.37,43.76-2,87.88-2.7,131.83-.07,4.35,0,8.7,0,14.43H380.17V637.44H510.26v386.18H665.81V637.25H814.27V486.31H667.79c0-41.14-1.31-80.94.48-120.61,1.12-24.64,17.31-40.58,41.65-45.2,14.28-2.71,29-3.51,43.61-3.93C775.27,315.94,797.05,316.4,819.81,316.4Z"/></svg>