<svg xmlns="http://www.w3.org/2000/svg" viewBox="0 0 1200 1200"><defs><style>.a{fill:#d3d3d3;}</style></defs><path class="a" d="M600,22.32C281,22.32,22.32,281,22.32,600S281,1177.68,600,1177.68,1177.68,919,1177.68,600,919,22.32,600,22.32ZM931.13,749.68A180.52,180.52,0,0,1,750.6,930.2H451.77A180.52,180.52,0,0,1,271.24,749.68V450.82A180.52,180.52,0,0,1,451.77,270.29H750.6A180.52,180.52,0,0,1,931.13,450.82Z"/><path class="a" d="M750.38,331.45H452A119.6,119.6,0,0,0,332.39,451V749.43A119.6,119.6,0,0,0,452,869H750.38A119.6,119.6,0,0,0,870,749.43V451A119.6,119.6,0,0,0,750.38,331.45ZM600,770.17A171.4,171.4,0,1,1,771.41,598.78,171.41,171.41,0,0,1,600,770.17ZM776.76,462.44a40,40,0,1,1,40-40A40,40,0,0,1,776.76,462.44Z"/><circle class="a" cx="600" cy="599.41" r="111.11"/></svg>