<svg xmlns="http://www.w3.org/2000/svg" viewBox="0 0 1200 1200"><defs><style>.a{fill:#d3d3d3;}</style></defs><path class="a" d="M563.89,22.32h72.22c2.89.63,5.76,1.62,8.68,1.84,90,6.73,174.16,32.55,250.88,79.78,149.12,91.81,241,223.86,273.15,396.51,3.91,21,6,42.29,8.86,63.44v72.22c-.92,7.4-2,14.8-2.76,22.22-12.37,114.25-53.77,216.76-126.7,305.63-90.69,110.51-206.7,179.14-347.61,204.77-21.34,3.89-43,6-64.5,9H563.89c-14.1-1.73-28.23-3.24-42.29-5.24-106.57-15.16-202.3-55.77-285.5-124.18C125.67,957.45,56.89,841.6,31.3,700.66c-3.88-21.36-6-43-9-64.55V563.89c1.66-13.74,3.08-27.52,5-41.23,16.24-115,61.89-216.82,139-303.81C256.13,117.47,367.88,54.35,501.6,31,522.24,27.43,543.12,25.19,563.89,22.32Zm-207.63,638a128.34,128.34,0,0,0,30.52,51.44c24.46,25.4,54.85,38.43,92.85,41.24C420.86,796.68,358,814.11,288.16,809.1a54.69,54.69,0,0,0,10.14,7.3c57.25,32.79,118.74,50.12,184.84,50.44,110.63.55,205.74-36.54,280.39-119.37,66.85-74.17,100.3-162.12,100.24-262.24,0-9.3,3.3-14.41,9.84-20.57,17.18-16.17,33-33.75,49.29-50.88,1.78-1.88,2.74-4.54,3.94-6.6l-67.29,18.35-1.65-3c24.87-17.22,43.13-39.25,52.42-66.59-24.69,8.66-49.07,17-73.31,25.82-6.67,2.41-10.92.47-15.89-4.17-73.53-68.71-195-32.91-218.19,64.94-4.65,19.59-3.39,40.58-4.93,62-107.74-7.56-197.78-54-269.42-137.82-14.58,25.11-19.73,50.95-17.27,78.19,3.65,40.35,23.27,72.09,55.35,96.77l-1.81,3.05-54.19-15.2C303.76,580.45,346,634.92,411,660.34Z"/></svg>